# xmcd
#
# Track frame offsets:
#	150
#	17486
#	31833
#	49229
#	67643
#	83103
#	99959
#	120219
#	144238
#	162311
#
# Disc length: 2386 seconds
#
# Revision: 0
# Processed by: cddbd v1.5.2PL0 Copyright (c) Steve Scherf et al.
# Submitted via: dBpowerAMP V4.0
#
DISCID=6709500a
DTITLE=The Incorregibles BluesBand - De las cenizad del Blues
DYEAR=2010
DGENRE=Blues
TTITLE0=Si la noche te confunde
TTITLE1=Yo no quiero madurar
TTITLE2=Molsa i pinyons
TTITLE3=On vius ara
TTITLE4=Ramona es Ramon
TTITLE5=Al pie de la cama
TTITLE6=No te puedo dejar de amar
TTITLE7=Gràcia fosca
TTITLE8=Hoy se que voy a triunfar
TTITLE9=Solitary boy
EXTD=Catalan versions group
EXTT0=
EXTT1=
EXTT2=
EXTT3=
EXTT4=
EXTT5=
EXTT6=
EXTT7=
EXTT8=
EXTT9=
PLAYORDER=
